<svg width="298" height="242" viewBox="0 0 298 242" fill="none" xmlns="http://www.w3.org/2000/svg">
<g clip-path="url(#clip0_245_11256)">
<path d="M254.006 94.3954C312.39 128.167 312.692 182.903 254.693 216.675C196.694 250.446 102.35 250.446 43.9798 216.675C-14.4036 182.903 -14.7057 128.167 43.2933 94.3954C101.292 60.6238 195.623 60.6238 254.006 94.3954V94.3954Z" fill="#3680BB"/>
<path d="M223.359 100.132C264.689 124.04 264.909 162.805 223.84 186.714C182.771 210.622 115.984 210.622 74.6407 186.714C33.311 162.805 33.0913 124.04 74.1602 100.132C115.229 76.2234 182.016 76.2234 223.359 100.132V100.132Z" fill="#F6C993"/>
<path d="M223.359 91.4103C243.53 102.911 253.91 117.891 254.473 132.954C255.064 148.76 254.954 183.192 148.018 183.192C41.0826 183.192 44.4604 150.741 43.5679 135.953C42.593 119.886 52.795 103.667 74.1602 91.4103C115.229 67.8596 182.016 67.8596 223.359 91.4103V91.4103Z" fill="#5AA549"/>
<path d="M253.485 125.911C249.393 142.529 230.444 162.984 148.005 162.984C65.5647 162.984 47.234 141.841 44.4192 125.897C43.6503 129.226 43.3619 132.583 43.5542 135.939C44.4467 150.741 41.0552 183.178 148.005 183.178C254.954 183.178 255.064 148.746 254.46 132.94C254.377 130.588 254.048 128.25 253.485 125.911V125.911Z" fill="#46803C"/>
<path d="M101.855 117.795C101.855 117.795 141.441 133.284 144.187 134.082C146.92 134.88 176.606 114.768 176.606 114.768C176.606 114.768 178.226 102.993 175.26 98.0958C172.281 93.1986 170.825 80.364 171.278 77.1588C171.731 73.9674 179.723 37.1832 180.835 29.1908C181.947 21.1984 183.361 16.9202 181.425 13.3848C179.476 9.84948 160.541 2.24228 153.771 1.27934C146.988 0.330157 125.335 -1.43064 124.044 2.06345C122.74 5.54378 121.243 19.19 122.218 20.9645C123.193 22.7253 124.058 25.2978 124.278 26.5496C124.511 27.8014 121.257 48.1331 119.568 54.4197C117.879 60.7063 120.447 65.5485 124.731 69.813C129.015 74.0774 127.532 75.907 123.673 77.4064C119.801 78.9059 106.441 96.844 101.883 117.795H101.855Z" fill="#726658"/>
<path d="M135.235 27.8977C130.69 26.2469 126.131 23.0692 122.438 21.4873C122.438 21.4873 122.438 21.4873 122.438 21.501C122.493 21.5973 122.534 21.6936 122.589 21.8037C122.589 21.8037 122.589 21.8037 122.589 21.8174C122.946 22.5878 123.289 23.4269 123.564 24.211C123.564 24.211 123.564 24.2248 123.564 24.2385C123.591 24.3348 123.632 24.4311 123.66 24.5136C123.66 24.5412 123.674 24.5687 123.687 24.5962C123.715 24.6787 123.742 24.7613 123.77 24.8438C123.77 24.8851 123.797 24.9126 123.811 24.9538C123.838 25.0226 123.852 25.0914 123.879 25.1602C123.879 25.2015 123.907 25.2427 123.921 25.284C123.934 25.339 123.962 25.4078 123.976 25.4628C123.989 25.5041 124.003 25.5591 124.017 25.6004C124.031 25.6554 124.044 25.7104 124.058 25.7655C124.072 25.8205 124.085 25.8618 124.099 25.9168C124.099 25.9581 124.127 26.0131 124.127 26.0544C124.14 26.1094 124.154 26.1644 124.168 26.2194C124.168 26.2469 124.182 26.2882 124.195 26.3157C124.209 26.3983 124.223 26.4808 124.25 26.5496C124.484 27.8014 121.229 48.1331 119.541 54.4197C118.675 57.625 118.923 60.445 119.939 63.0174C121.065 63.0999 122.204 62.9486 123.289 62.4809C128.273 60.3212 130.649 57.8038 130.36 56.9509C130.072 56.098 122.973 54.4885 122.836 52.6314C122.767 51.7785 122.685 49.9765 123.234 49.0273C123.893 47.8855 125.294 47.4866 126.735 45.038C128.74 41.6539 132.859 34.4457 134.548 30.4976C134.699 30.1537 140.796 31.9833 145.821 32.4648C148.375 32.7124 151.643 31.8595 151.684 31.7219C151.877 31.1304 139.794 29.5484 135.235 27.8839V27.8977Z" fill="#595245"/>
<path d="M137.13 37.6371C134.452 36.6604 137.446 30.2775 137.446 30.2775C137.446 30.2775 146.975 31.2129 149.611 31.7219C152.247 32.2309 153.373 33.8816 152.604 35.5324C151.835 37.1832 145.217 37.926 142.746 38.1186C140.274 38.3112 138.928 38.2974 137.116 37.6371H137.13Z" fill="#595245"/>
<path d="M175.246 98.0958C172.267 93.1986 170.811 80.364 171.265 77.1588C171.718 73.9674 179.709 37.1832 180.821 29.1908C181.933 21.1984 183.348 16.9202 181.412 13.3848C181.274 13.1372 181.055 12.8621 180.753 12.5595C172.747 16.2874 159.113 10.7436 156.779 12.1743C154.334 13.66 153.387 24.7337 154.966 29.4384C156.545 34.143 167.681 30.6077 167.667 35.0922C167.653 39.5767 159.895 59.6746 157.273 65.8237C154.65 71.9727 153.126 76.5123 151.451 77.3652C149.405 78.3144 140.178 76.3747 134.521 75.2605C128.177 74.0086 126.378 70.7622 124.607 69.7029C124.635 69.7304 124.676 69.7717 124.703 69.7992C128.644 73.7335 127.71 75.5906 124.511 77.035C125.967 78.0943 128.974 79.6625 135.084 81.8635C142.691 84.5872 148.54 85.1925 152.234 85.1787C151.616 87.9575 149.529 92.7859 146.151 105.428C143.652 114.782 143.501 127.658 143.597 133.848C143.858 133.958 144.05 134.041 144.174 134.082C146.906 134.88 179.915 116.997 179.915 116.997C179.915 116.997 178.212 103.007 175.233 98.1096L175.246 98.0958Z" fill="#595245"/>
<path d="M128.768 53.388C129.454 52.9478 131.871 53.3605 132.736 53.6631C133.601 53.9658 133.519 54.7636 133.313 55.2451C133.107 55.7266 131.885 56.0567 130.305 55.2864C128.726 54.516 128.287 53.6907 128.768 53.388Z" fill="#595245"/>
<path d="M130.498 62.4809C132.681 62.8798 138.269 64.393 139.574 65.1771C140.892 65.975 141.057 65.4935 141.331 65.012C141.606 64.5443 135.098 60.8714 131.019 60.1974C126.941 59.5233 121.12 59.0143 121.12 59.0143L121.271 60.8714C121.271 60.8714 125.939 61.628 130.498 62.4671V62.4809Z" fill="#595245"/>
<path d="M128.328 28.3516C127.134 27.9252 125.184 26.357 123.921 25.2702C123.921 25.2702 123.921 25.284 123.921 25.2977C123.934 25.3528 123.962 25.4216 123.976 25.4766C123.989 25.5178 124.003 25.5729 124.017 25.6141C124.031 25.6692 124.044 25.7242 124.058 25.7792C124.072 25.8342 124.085 25.8755 124.099 25.9305C124.099 25.9718 124.127 26.0268 124.127 26.0681C124.14 26.1231 124.154 26.1781 124.168 26.2332C124.168 26.2607 124.182 26.302 124.195 26.3295C124.209 26.412 124.223 26.4945 124.25 26.5633C124.319 26.921 124.099 28.8881 123.701 31.6394C123.646 32.0521 126.159 35.0097 126.818 35.1885C127.916 35.4774 128.85 35.0372 129.948 33.8679C131.692 31.9833 130.223 29.0257 128.342 28.3516H128.328Z" fill="#726658"/>
</g>
<defs>
<clipPath id="clip0_245_11256">
<rect width="298" height="242" fill="white"/>
</clipPath>
</defs>
</svg>
