<svg width="90" height="73" viewBox="0 0 90 73" fill="none" xmlns="http://www.w3.org/2000/svg">
<g clip-path="url(#clip0_245_10883)">
<path d="M76.7133 28.4746C94.3459 38.6619 94.4372 55.1733 76.9207 65.3606C59.4042 75.5479 30.9109 75.5479 13.2825 65.3606C-4.3501 55.1733 -4.44133 38.6619 13.0751 28.4746C30.5916 18.2873 59.0808 18.2873 76.7133 28.4746Z" fill="#3680BB"/>
<path d="M67.4575 30.205C79.9397 37.4171 80.006 49.1107 67.6026 56.3227C55.1993 63.5347 35.0288 63.5347 22.5425 56.3227C10.0604 49.1107 9.99402 37.4171 22.3974 30.205C34.8007 22.993 54.9712 22.993 67.4575 30.205Z" fill="#F6C993"/>
<path d="M67.4575 27.5742C73.5493 31.0432 76.6843 35.5622 76.8544 40.106C77.0327 44.8739 76.9995 55.2604 44.7035 55.2604C12.4075 55.2604 13.4276 45.4715 13.1581 41.0106C12.8637 36.1639 15.9448 31.2715 22.3974 27.5742C34.8007 20.47 54.9712 20.47 67.4575 27.5742Z" fill="#5AA549"/>
<path d="M76.5558 37.9814C75.32 42.9941 69.5973 49.1646 44.6993 49.1646C19.8014 49.1646 14.2653 42.7867 13.4152 37.9773C13.183 38.9815 13.0959 39.994 13.1539 41.0065C13.4235 45.4715 12.3992 55.2563 44.6993 55.2563C76.9995 55.2563 77.0327 44.8698 76.8502 40.1019C76.8253 39.3923 76.7258 38.6868 76.5558 37.9814Z" fill="#46803C"/>
<path d="M30.7617 35.5331C30.7617 35.5331 42.7171 40.2056 43.5465 40.4463C44.3718 40.687 53.3373 34.6202 53.3373 34.6202C53.3373 34.6202 53.8267 31.0682 52.9309 29.5909C52.0311 28.1136 51.5915 24.242 51.7283 23.2752C51.8652 22.3125 54.2787 11.2164 54.6146 8.80548C54.9505 6.39455 55.3776 5.10402 54.7929 4.03757C54.204 2.97112 48.4855 0.676386 46.441 0.385914C44.3925 0.0995902 37.8528 -0.43156 37.463 0.622441C37.0691 1.67229 36.6171 5.78871 36.9115 6.32401C37.2059 6.85516 37.4672 7.63114 37.5335 8.00875C37.604 8.38637 36.6212 14.5195 36.1111 16.4159C35.6011 18.3122 36.3765 19.7729 37.6704 21.0593C38.9642 22.3457 38.5163 22.8976 37.3511 23.3499C36.1816 23.8022 32.1467 29.2133 30.7699 35.5331H30.7617Z" fill="#726658"/>
<path d="M40.8427 8.41541C39.4701 7.91746 38.0934 6.95889 36.9778 6.48169C36.9778 6.48169 36.9778 6.48169 36.9778 6.48584C36.9944 6.51489 37.0069 6.54393 37.0235 6.57713C37.0235 6.57713 37.0235 6.57713 37.0235 6.58128C37.1313 6.81366 37.2349 7.06679 37.3179 7.30331C37.3179 7.30331 37.3179 7.30746 37.3179 7.31161C37.3262 7.34066 37.3386 7.36971 37.3469 7.3946C37.3469 7.4029 37.3511 7.4112 37.3552 7.4195C37.3635 7.4444 37.3718 7.4693 37.3801 7.49419C37.3801 7.50664 37.3884 7.51494 37.3925 7.52739C37.4008 7.54814 37.405 7.56889 37.4133 7.58964C37.4133 7.60209 37.4216 7.61453 37.4257 7.62698C37.4299 7.64358 37.4381 7.66433 37.4423 7.68093C37.4464 7.69338 37.4506 7.70998 37.4547 7.72242C37.4589 7.73902 37.463 7.75562 37.4672 7.77222C37.4713 7.78882 37.4755 7.80127 37.4796 7.81787C37.4796 7.83031 37.4879 7.84691 37.4879 7.85936C37.4921 7.87596 37.4962 7.89256 37.5004 7.90916C37.5004 7.91746 37.5045 7.9299 37.5086 7.9382C37.5128 7.9631 37.5169 7.988 37.5252 8.00875C37.5957 8.38636 36.6129 14.5195 36.1028 16.4159C35.8416 17.3827 35.9162 18.2334 36.2231 19.0094C36.5632 19.0343 36.9073 18.9886 37.2349 18.8475C38.7403 18.196 39.4577 17.4367 39.3706 17.1794C39.2835 16.9221 37.1396 16.4366 37.0981 15.8764C37.0774 15.6191 37.0525 15.0755 37.2184 14.7892C37.4174 14.4448 37.8404 14.3245 38.2758 13.5858C38.8813 12.565 40.1253 10.3906 40.6354 9.19969C40.681 9.09595 42.5222 9.64784 44.04 9.79308C44.8113 9.86777 45.7983 9.6105 45.8107 9.569C45.8688 9.39057 42.2195 8.91336 40.8427 8.41126V8.41541Z" fill="#595245"/>
<path d="M41.415 11.3533C40.6064 11.0587 41.5104 9.13329 41.5104 9.13329C41.5104 9.13329 44.3883 9.41546 45.1845 9.56899C45.9807 9.72253 46.3208 10.2205 46.0886 10.7184C45.8563 11.2164 43.8575 11.4405 43.1111 11.4986C42.3647 11.5567 41.9583 11.5525 41.4109 11.3533H41.415Z" fill="#595245"/>
<path d="M52.9268 29.5909C52.0269 28.1136 51.5873 24.242 51.7242 23.2752C51.861 22.3125 54.2745 11.2164 54.6104 8.80548C54.9463 6.39455 55.3735 5.10402 54.7887 4.03757C54.7473 3.96288 54.6809 3.87988 54.5897 3.78859C52.1721 4.91314 48.0542 3.24084 47.3492 3.6724C46.6111 4.12056 46.3249 7.461 46.8018 8.88017C47.2787 10.2993 50.6418 9.23289 50.6377 10.5857C50.6336 11.9384 48.2906 18.001 47.4985 19.8559C46.7064 21.7108 46.2461 23.0801 45.7402 23.3374C45.1223 23.6237 42.3356 23.0387 40.6271 22.7025C38.7112 22.3249 38.168 21.3456 37.633 21.0261C37.6413 21.0344 37.6538 21.0468 37.6621 21.0551C38.8522 22.2419 38.5702 22.8021 37.604 23.2378C38.0436 23.5574 38.9518 24.0304 40.7971 24.6943C43.0945 25.516 44.8611 25.6986 45.9766 25.6944C45.79 26.5326 45.1597 27.9891 44.1395 31.8026C43.3848 34.6244 43.3392 38.5084 43.3682 40.3757C43.447 40.4089 43.505 40.4338 43.5424 40.4463C44.3676 40.687 54.3367 35.2925 54.3367 35.2925C54.3367 35.2925 53.8225 31.0723 52.9226 29.595L52.9268 29.5909Z" fill="#595245"/>
<path d="M38.8896 16.1046C39.0969 15.9719 39.8267 16.0963 40.088 16.1876C40.3493 16.2789 40.3244 16.5196 40.2622 16.6648C40.2 16.8101 39.8309 16.9097 39.354 16.6773C38.8771 16.4449 38.7444 16.1959 38.8896 16.1046Z" fill="#595245"/>
<path d="M39.4121 18.8475C40.0714 18.9679 41.7592 19.4243 42.1532 19.6609C42.5513 19.9015 42.601 19.7563 42.684 19.6111C42.7669 19.47 40.8013 18.362 39.5696 18.1587C38.338 17.9554 36.5797 17.8018 36.5797 17.8018L36.6254 18.362C36.6254 18.362 38.0353 18.5903 39.4121 18.8434V18.8475Z" fill="#595245"/>
<path d="M38.7569 8.55235C38.3961 8.42371 37.8072 7.95065 37.4257 7.62283C37.4257 7.62283 37.4257 7.62698 37.4257 7.63113C37.4299 7.64773 37.4381 7.66848 37.4423 7.68508C37.4464 7.69753 37.4506 7.71412 37.4547 7.72657C37.4589 7.74317 37.463 7.75977 37.4672 7.77637C37.4713 7.79297 37.4755 7.80542 37.4796 7.82201C37.4796 7.83446 37.4879 7.85106 37.4879 7.86351C37.4921 7.88011 37.4962 7.89671 37.5003 7.91331C37.5003 7.9216 37.5045 7.93405 37.5086 7.94235C37.5128 7.96725 37.5169 7.99215 37.5252 8.0129C37.546 8.12079 37.4796 8.71418 37.3594 9.5441C37.3428 9.66859 38.1016 10.5608 38.3007 10.6147C38.6325 10.7018 38.9144 10.5691 39.2462 10.2163C39.7728 9.64784 39.3291 8.75568 38.761 8.55235H38.7569Z" fill="#726658"/>
</g>
<defs>
<clipPath id="clip0_245_10883">
<rect width="90" height="73" fill="white"/>
</clipPath>
</defs>
</svg>
